<svg xmlns="http://www.w3.org/2000/svg" xmlns:xlink="http://www.w3.org/1999/xlink" viewBox="0,0,256,256" width="70px" height="70px"><g fill="#ff1f93" fill-rule="nonzero" stroke="none" stroke-width="1" stroke-linecap="butt" stroke-linejoin="miter" stroke-miterlimit="10" stroke-dasharray="" stroke-dashoffset="0" font-family="none" font-weight="none" font-size="none" text-anchor="none" style="mix-blend-mode: normal"><g transform="scale(5.12,5.12)"><path d="M35.818,5h-21.636c-5.063,0 -9.182,4.119 -9.182,9.182v21.637c0,5.062 4.119,9.181 9.182,9.181h21.637c5.062,0 9.181,-4.119 9.181,-9.182v-21.636c0,-5.063 -4.119,-9.182 -9.182,-9.182zM36.652,35.946c-1.41,-2.523 -3.043,-2.598 -4.75,-1.93c-1.707,0.668 -3.563,1.633 -6.605,1.781c-8.684,0.52 -12.23,-4.989 -14.234,-7.735c7.867,4.824 12.379,2.094 14.457,1.426c-5.492,-3.34 -12.023,-13.211 -12.023,-13.211c0,0 7.645,6.012 10.02,7.645c-1.337,-1.336 -5.181,-6.547 -6.517,-8.922c1.855,2.152 10.078,8.774 12.305,10.258c0.977,-5.727 -0.227,-8.071 -2.305,-12.227c9.996,7.062 7.648,16.012 7.648,16.012c2.375,2.45 2.301,4.602 2.004,6.903z"></path></g></g></svg>